<svg width="16" height="16" viewBox="0 0 16 16" fill="none" xmlns="http://www.w3.org/2000/svg">
<path fill-rule="evenodd" clip-rule="evenodd" d="M15 14.3002L10.7 10.0002C12.6 7.70023 12.3 4.20023 10 2.30023C7.70001 0.400227 4.20001 0.700227 2.30001 3.00023C0.400014 5.30023 0.700014 8.80023 3.00001 10.7002C5.00001 12.4002 8.00001 12.4002 10 10.7002L14.3 15.0002L15 14.3002ZM2.00001 6.50023C2.00001 4.00023 4.00001 2.00023 6.50001 2.00023C9.00001 2.00023 11 4.00023 11 6.50023C11 9.00023 9.00001 11.0002 6.50001 11.0002C4.00001 11.0002 2.00001 9.00023 2.00001 6.50023Z" fill="#697077"/>
</svg>
