<svg width="16" height="17" viewBox="0 0 16 17" fill="none" xmlns="http://www.w3.org/2000/svg">
<path fill-rule="evenodd" clip-rule="evenodd" d="M9.35 1.15151L12.85 4.65151C12.9488 4.74063 13.0036 4.86852 13 5.00151V14.0015C13 14.5538 12.5523 15.0015 12 15.0015H4C3.44772 15.0015 3 14.5538 3 14.0015V2.00151C3 1.44922 3.44772 1.00151 4 1.00151H9C9.13299 0.997936 9.26087 1.05274 9.35 1.15151ZM8.75003 10.7926V7.50134H7.75004V10.7926L6.45506 9.51329L5.75007 10.2125L8.25003 12.6918L10.75 10.2125L10.045 9.51329L8.75003 10.7926ZM9 2.20151L11.8 5.00151H9V2.20151ZM4 14.0015H12V6.00151H9C8.44772 6.00151 8 5.55379 8 5.00151V2.00151H4V14.0015Z" fill="#0F62FE"/>
</svg>
