<svg width="25" height="24" viewBox="0 0 25 24" fill="none" xmlns="http://www.w3.org/2000/svg">
<path fill-rule="evenodd" clip-rule="evenodd" d="M11.1665 15.135L8.474 12.4425L7.4165 13.5L11.1665 17.25L17.9165 10.5L16.859 9.435L11.1665 15.135ZM19.4165 3.75H17.1665V3C17.1665 2.17157 16.4949 1.5 15.6665 1.5H9.6665C8.83808 1.5 8.1665 2.17157 8.1665 3V3.75H5.9165C5.08808 3.75 4.4165 4.42157 4.4165 5.25V21C4.4165 21.8284 5.08808 22.5 5.9165 22.5H19.4165C20.2449 22.5 20.9165 21.8284 20.9165 21V5.25C20.9165 4.42157 20.2449 3.75 19.4165 3.75ZM9.6665 3H15.6665V6H9.6665V3ZM5.9165 21H19.4165V5.25H17.1665V7.5H8.1665V5.25H5.9165V21Z" fill="white"/>
</svg>
