<svg width="25" height="24" viewBox="0 0 25 24" fill="none" xmlns="http://www.w3.org/2000/svg">
<path fill-rule="evenodd" clip-rule="evenodd" d="M22.7735 12.4575L20.5235 7.2075C20.4061 6.93037 20.1345 6.75025 19.8335 6.75H17.5835V5.25C17.5835 4.83579 17.2477 4.5 16.8335 4.5H2.5835C2.16928 4.5 1.8335 4.83579 1.8335 5.25V18C1.8335 18.4142 2.16928 18.75 2.5835 18.75H4.1885C4.54354 20.0565 5.72964 20.9633 7.0835 20.9633C8.43735 20.9633 9.62345 20.0565 9.9785 18.75H14.6885C15.0435 20.0565 16.2296 20.9633 17.5835 20.9633C18.9374 20.9633 20.1234 20.0565 20.4785 18.75H22.0835C22.4977 18.75 22.8335 18.4142 22.8335 18V12.75C22.8333 12.6495 22.8129 12.55 22.7735 12.4575ZM17.5835 8.25H19.3385L20.9435 12H17.5835V8.25ZM7.0835 19.5C6.25507 19.5 5.5835 18.8284 5.5835 18C5.5835 17.1716 6.25507 16.5 7.0835 16.5C7.91192 16.5 8.5835 17.1716 8.5835 18C8.5835 18.8284 7.91192 19.5 7.0835 19.5ZM14.6885 17.25H9.9785C9.62345 15.9435 8.43735 15.0367 7.0835 15.0367C5.72964 15.0367 4.54354 15.9435 4.1885 17.25H3.3335V6H16.0835V15.42C15.3937 15.8203 14.8918 16.4788 14.6885 17.25ZM17.5835 19.5C16.7551 19.5 16.0835 18.8284 16.0835 18C16.0835 17.1716 16.7551 16.5 17.5835 16.5C18.4119 16.5 19.0835 17.1716 19.0835 18C19.0835 18.8284 18.4119 19.5 17.5835 19.5ZM21.3335 17.25H20.4785C20.1374 15.9289 18.9479 15.0044 17.5835 15V13.5H21.3335V17.25Z" fill="white"/>
</svg>
