<svg width="16" height="16" viewBox="0 0 16 16" fill="none" xmlns="http://www.w3.org/2000/svg">
<path fill-rule="evenodd" clip-rule="evenodd" d="M15 4.00049H12.9C12.7 2.90049 11.7 2.00049 10.5 2.00049C9.3 2.00049 8.3 2.90049 8.1 4.00049H1V5.00049H8.1C8.3 6.10049 9.3 7.00049 10.5 7.00049C11.7 7.00049 12.7 6.10049 12.9 5.00049H15V4.00049ZM10.5 6.00049C9.7 6.00049 9 5.30049 9 4.50049C9 3.70049 9.7 3.00049 10.5 3.00049C11.3 3.00049 12 3.70049 12 4.50049C12 5.30049 11.3 6.00049 10.5 6.00049ZM1 12.0005H3.1C3.3 13.1005 4.3 14.0005 5.5 14.0005C6.7 14.0005 7.7 13.1005 7.9 12.0005H15V11.0005H7.9C7.7 9.90049 6.7 9.00049 5.5 9.00049C4.3 9.00049 3.3 9.90049 3.1 11.0005H1V12.0005ZM5.5 10.0005C6.3 10.0005 7 10.7005 7 11.5005C7 12.3005 6.3 13.0005 5.5 13.0005C4.7 13.0005 4 12.3005 4 11.5005C4 10.7005 4.7 10.0005 5.5 10.0005Z" fill="#697077"/>
</svg>
