<svg width="24" height="24" viewBox="0 0 24 24" fill="none" xmlns="http://www.w3.org/2000/svg">
<path fill-rule="evenodd" clip-rule="evenodd" d="M7.5 22.5C8.32843 22.5 9 21.8284 9 21C9 20.1715 8.32843 19.5 7.5 19.5C6.67157 19.5 6 20.1715 6 21C6 21.8284 6.67157 22.5 7.5 22.5ZM18 22.5C18.8284 22.5 19.5 21.8284 19.5 21C19.5 20.1715 18.8284 19.5 18 19.5C17.1716 19.5 16.5 20.1715 16.5 21C16.5 21.8284 17.1716 22.5 18 22.5ZM4.365 5.24997H21C21.2311 5.24429 21.4519 5.34551 21.5985 5.5243C21.745 5.70309 21.8009 5.93947 21.75 6.16497L20.25 12.915C20.1714 13.2638 19.8575 13.5087 19.5 13.5H6L6.615 16.5H19.5V18H6C5.63793 18.0073 5.32236 17.7548 5.25 17.4L2.385 2.99997H0V1.49997H3C3.36207 1.49267 3.67764 1.74513 3.75 2.09997L4.365 5.24997ZM5.715 12H18.9L20.0625 6.74997H4.665L5.715 12Z" fill="white"/>
</svg>
