<svg width="438" height="158" viewBox="0 0 438 158" fill="none" xmlns="http://www.w3.org/2000/svg">
<path d="M203 6C203 2.68629 205.686 0 209 0H242C245.314 0 248 2.68629 248 6V152C248 155.314 245.314 158 242 158H209C205.686 158 203 155.314 203 152V6Z" fill="white"/>
<path d="M267 6C267 2.68629 269.686 0 273 0H306C309.314 0 312 2.68629 312 6V152C312 155.314 309.314 158 306 158H273C269.686 158 267 155.314 267 152V6Z" fill="white"/>
<path d="M129 0C125.686 0 123 2.68629 123 6V34.7883C122.856 38.468 123.122 44.1536 129.5 50C133.83 53.9688 147.011 64.9673 157.585 73.7895C161.664 77.1931 165.355 80.2728 168 82.5C168 70.0032 168.003 60.1266 168.006 50.25C168.009 40.3734 168.012 30.4968 168.012 18L168 18.0045V6C168 2.68629 165.314 0 162 0H129Z" fill="white"/>
<path fill-rule="evenodd" clip-rule="evenodd" d="M117 36V9.72283C105.725 3.52528 92.7744 0 79 0C35.3695 0 0 35.3695 0 79C0 122.63 35.3695 158 79 158C103.006 158 124.511 147.293 139 130.393L139 152C139 155.314 141.686 158 145 158H178C181.314 158 184 155.314 184 152V114.499C184.166 110.832 182.999 103.499 176.5 98C173.002 95.04 165.571 88.7009 157.937 82.1817C157.938 82.1677 157.938 82.1537 157.939 82.1397C155.21 79.8177 152.398 77.4293 149.614 75.0708C147.262 73.0613 145.033 71.1559 143.052 69.4627L139 66V66.1168C133.016 61.0951 128.018 56.9587 125.5 55C118.3 49.4 116.833 40 117 36ZM79 119C101.091 119 119 101.091 119 79C119 56.9086 101.091 39 79 39C56.9086 39 39 56.9086 39 79C39 101.091 56.9086 119 79 119Z" fill="white"/>
<path d="M359 6C359 2.68628 361.686 0 365 0H399C402.314 0 405 2.68628 405 6V34C405 36.7614 407.239 39 410 39H432C435.314 39 438 41.6863 438 45V69C438 72.3137 435.314 75 432 75H410C407.239 75 405 77.2386 405 80V99C405 99.219 404.988 99.4353 404.965 99.6482C404.655 107.33 407.504 121.5 421.5 121.5H431C433 121.833 437 123.5 437 127.5V153C437 154.333 435.9 157 431.5 157H413C398.167 156.333 366.2 147.1 359 115.5V114V80C359 77.2386 356.761 75 354 75H332C328.686 75 326 72.3137 326 69V45C326 41.6863 328.686 39 332 39H354C356.761 39 359 36.7614 359 34V6Z" fill="white"/>
</svg>
