<svg width="24" height="24" viewBox="0 0 24 24" fill="none" xmlns="http://www.w3.org/2000/svg">
<path fill-rule="evenodd" clip-rule="evenodd" d="M5.58148 5.66852C5.38621 5.86379 5.38621 6.18037 5.58148 6.37563L11.1342 11.9283L5.5098 17.5527C5.31454 17.748 5.31454 18.0645 5.5098 18.2598C5.70507 18.4551 6.02165 18.4551 6.21691 18.2598L11.8413 12.6354L17.6023 18.3964C17.7976 18.5917 18.1141 18.5917 18.3094 18.3964C18.5047 18.2012 18.5047 17.8846 18.3094 17.6893L12.5484 11.9283L18.2377 6.23899C18.433 6.04373 18.433 5.72714 18.2377 5.53188C18.0425 5.33662 17.7259 5.33662 17.5306 5.53188L11.8413 11.2212L6.28858 5.66852C6.09332 5.47326 5.77674 5.47326 5.58148 5.66852Z" fill="#343A3F"/>
</svg>
